<?xml version="1.0" ?><!DOCTYPE svg  PUBLIC '-//W3C//DTD SVG 1.1//EN'  'http://www.w3.org/Graphics/SVG/1.1/DTD/svg11.dtd'><svg height="60px" id="Layer_1" style="enable-background:new 0 0 64 60;" version="1.1" viewBox="0 0 64 60" width="64px" xml:space="preserve" xmlns="http://www.w3.org/2000/svg" xmlns:xlink="http://www.w3.org/1999/xlink"><g id="Peak"><g><path d="M2,36.001V44c0,8,0,16,2,16c8,0,12-8,28-8s20,8,28,8c2,0,2-8,2-16v-7.999H2z" style="fill:#48A0DC;"/></g></g><g id="Crown"><g><path d="M34,2.001C34,0,33.104,0,32,0c-1.105,0-2,0-2,2.001    c-22,0-30,15.999-30,34C0,44,2,44,2,44l4-1.999c4-2,14-6,26-6s22,4,26,6L62,44c0,0,2,0,2-7.999C64,18,56,2.001,34,2.001z" style="fill-rule:evenodd;clip-rule:evenodd;fill:#408EC2;"/></g></g><g id="Front"><g><path d="M32,2.001c-24,0-26,18-26,22v18c4-2,14-6,26-6s21.999,4,26,6v-18C58,20.001,56,2.001,32,2.001z" style="fill:#E6E6E6;"/></g></g><g/><g/><g/><g/><g/><g/><g/><g/><g/><g/><g/><g/><g/><g/><g/></svg>